<svg width="25" height="25" viewBox="0 0 25 25" fill="none" xmlns="http://www.w3.org/2000/svg">
<path d="M0 1V12.2812C0 12.8335 0.447716 13.2812 1 13.2812H5.36974C5.92202 13.2812 6.36974 12.8335 6.36974 12.2812V7.5625C6.36974 7.01022 6.81745 6.5625 7.36974 6.5625H16.3908C16.4695 6.5625 16.5473 6.57119 16.6211 6.59851C17.0353 6.75176 18.4592 7.46308 18.4592 10C18.4592 11.5895 17.2652 12.7007 16.7458 13.1087C16.5954 13.227 16.4076 13.2812 16.2163 13.2812H13.6095C13.0572 13.2812 12.6095 13.729 12.6095 14.2812V18.5238C12.6095 18.7701 12.7004 19.0077 12.8647 19.1911L17.7712 24.6673C17.9609 24.879 18.2317 25 18.516 25H22.5904C23.4551 25 23.9122 23.9767 23.3351 23.3327L20.3233 19.9711C19.8598 19.4538 20.0465 18.6182 20.6532 18.2802C21.3903 17.8696 22.2846 17.277 22.8791 16.5625C24.5038 14.6096 24.8068 11.9346 24.8278 11.7311L24.8305 11.7062C24.856 11.4876 25.1998 8.45093 24.829 6.5625C24.4951 4.86189 23.8956 3.89807 22.8791 2.5C21.8625 1.10193 20.5392 0.3125 18.0693 0H1C0.447715 0 0 0.447716 0 1Z" fill="#4B2DBB"/>
</svg>
